<svg id="icon-1" enable-background="new 0 0 512 512" viewBox="0 0 512 512" xmlns="http://www.w3.org/2000/svg">
    <g>
        <g>
            <path
                d="m462.958 456.59h-8.389c.551-1.871.859-3.844.859-5.891v-13.617c0-11.521-9.373-20.896-20.895-20.896h-14.064l-12.861-150.666h20.12c9.704 0 17.6-7.896 17.6-17.6v-12.12c0-9.704-7.896-17.6-17.6-17.6h-.215c1.062-2.686 1.652-5.609 1.652-8.668 0-13.047-10.615-23.662-23.663-23.662h-9.605c11.738-10.622 19.126-25.968 19.126-43.009 0-31.985-26.022-58.008-58.008-58.008s-58.009 26.022-58.009 58.008c0 17.041 7.388 32.386 19.126 43.009h-9.606c-13.047 0-23.662 10.615-23.662 23.662 0 3.059.59 5.982 1.652 8.668h-.218c-9.704 0-17.6 7.896-17.6 17.6v12.12c0 9.704 7.896 17.6 17.6 17.6h20.123l-12.862 150.667h-14.064c-5.095 0-9.766 1.838-13.396 4.88-3.629-3.04-8.297-4.876-13.39-4.876h-4.771l-19.993-59.978c-4.56-13.68-6.872-27.928-6.872-42.35v-81.893c9.381-3.145 16.162-12.011 16.162-22.438 0-3.057-.589-5.977-1.649-8.662h.211c9.705 0 17.602-7.896 17.602-17.602v-12.122c0-9.705-7.896-17.602-17.602-17.602h-.211c1.06-2.685 1.65-5.606 1.65-8.663 0-10.432-6.789-19.302-16.178-22.442l13.833-27.667c1.534-3.068 2.345-6.503 2.345-9.933 0-12.247-9.963-22.211-22.21-22.211h-19.326c5.13-6.58 8.198-14.844 8.198-23.814 0-21.402-17.412-38.814-38.815-38.814-21.402 0-38.814 17.412-38.814 38.815 0 8.971 3.068 17.234 8.198 23.814h-19.323c-12.247 0-22.211 9.964-22.211 22.211 0 3.429.812 6.863 2.346 9.933l13.833 27.666c-9.39 3.14-16.179 12.01-16.179 22.442 0 3.057.589 5.978 1.65 8.663h-.21c-9.705 0-17.602 7.896-17.602 17.602v12.122c0 9.705 7.896 17.602 17.602 17.602h.21c-1.06 2.685-1.649 5.605-1.649 8.662 0 10.427 6.781 19.293 16.163 22.438v81.893c0 14.423-2.312 28.671-6.873 42.35l-19.994 59.977h-4.772c-11.519 0-20.89 9.371-20.89 20.89v13.62c0 2.048.309 4.022.86 5.894h-8.395c-12.557 0-22.771 10.215-22.771 22.771v9.862c0 12.557 10.215 22.772 22.771 22.772h413.924c12.562 0 22.78-10.214 22.78-22.77v-9.86c.001-12.56-10.218-22.779-22.779-22.779zm-148.953-313.729c0-23.715 19.294-43.008 43.009-43.008s43.008 19.293 43.008 43.008-19.293 43.009-43.008 43.009-43.009-19.294-43.009-43.009zm-30.307 105.059v-12.12c0-1.434 1.166-2.6 2.6-2.6h53.12c4.143 0 7.5-3.357 7.5-7.5s-3.357-7.5-7.5-7.5h-30.795c-.032 0-.064-.005-.097-.005-4.776 0-8.662-3.887-8.662-8.663s3.886-8.662 8.662-8.662h96.976c4.776 0 8.663 3.886 8.663 8.662s-3.887 8.663-8.663 8.663c-.033 0-.064.004-.097.005h-30.787c-4.143 0-7.5 3.357-7.5 7.5s3.357 7.5 7.5 7.5h53.11c1.434 0 2.6 1.166 2.6 2.6v12.12c0 1.434-1.166 2.6-2.6 2.6h-141.431c-1.433 0-2.599-1.166-2.599-2.6zm37.776 17.6h71.08l12.861 150.667h-96.803zm-180.206-226.705c0-13.132 10.684-23.815 23.814-23.815 13.132 0 23.815 10.684 23.815 23.815s-10.684 23.814-23.815 23.814c-13.13.001-23.814-10.683-23.814-23.814zm-33.336 46.026c0-3.977 3.234-7.211 7.211-7.211h99.88c3.976 0 7.21 3.234 7.21 7.211 0 1.113-.263 2.229-.761 3.224l-16.578 33.155h-79.623l-16.578-33.155c-.497-.997-.761-2.112-.761-3.224zm0 60.041c0-4.776 3.887-8.662 8.663-8.662h96.976c4.776 0 8.662 3.886 8.662 8.662s-3.886 8.663-8.662 8.663h-96.976c-4.776 0-8.663-3.887-8.663-8.663zm-16.162 38.387v-12.122c0-1.435 1.167-2.602 2.602-2.602h141.423c1.435 0 2.602 1.167 2.602 2.602v12.122c0 1.435-1.167 2.602-2.602 2.602h-141.423c-1.435-.001-2.602-1.168-2.602-2.602zm24.825 17.601h96.976c4.776 0 8.662 3.886 8.662 8.662s-3.886 8.663-8.662 8.663h-96.976c-4.776 0-8.663-3.887-8.663-8.663s3.887-8.662 8.663-8.662zm-39.137 255.72c-3.247 0-5.89-2.642-5.89-5.89v-13.62c0-3.248 2.643-5.89 5.89-5.89h62.13c4.143 0 7.5-3.357 7.5-7.5s-3.357-7.5-7.5-7.5h-41.546l18.411-55.233c5.071-15.211 7.643-31.056 7.643-47.094v-80.668h81.976v80.668c0 16.037 2.571 31.882 7.642 47.094l18.412 55.233h-57.336c-4.143 0-7.5 3.357-7.5 7.5s3.357 7.5 7.5 7.5h77.92c3.247 0 5.89 2.642 5.89 5.89v13.62c0 3.248-2.643 5.89-5.89 5.89-.026 0-.051.004-.077.004h-175.098c-.026 0-.051-.004-.077-.004zm203.669 40.41h-232.093c-4.285 0-7.771-3.486-7.771-7.772v-9.862c0-4.285 3.486-7.771 7.771-7.771h232.099c4.285 0 7.771 3.486 7.771 7.771v9.862c0 4.286-3.486 7.772-7.771 7.772zm189.611-7.77c0 4.284-3.49 7.77-7.78 7.77h-160.421c.884-2.427 1.367-5.044 1.367-7.772v-9.862c0-2.729-.484-5.348-1.368-7.775h75.862c4.143 0 7.5-3.357 7.5-7.5s-3.357-7.5-7.5-7.5l-98.904.004c-3.25 0-5.895-2.645-5.895-5.895v-13.617c0-3.251 2.645-5.896 5.895-5.896h155.04c3.25 0 5.895 2.645 5.895 5.896v13.617c0 3.224-2.603 5.849-5.817 5.891h-21.014c-4.143 0-7.5 3.357-7.5 7.5s3.357 7.5 7.5 7.5h49.36c4.29 0 7.78 3.49 7.78 7.78z"/>
        </g>
    </g>
</svg>
