<svg id="icon-1" enable-background="new 0 0 479.997 479.997" viewBox="0 0 479.997 479.997" xmlns="http://www.w3.org/2000/svg">
    <g>
        <path
            d="m422.998 65.997h-58.129c-4.418 0-8 3.582-8 8s3.582 8 8 8h50.129v382h-350v-382h256.188c7.496 0 10.878-9.451 5.071-14.19-86.684-70.75-81.765-66.816-83.965-67.473-2.052-.614-4.233-.358-6.014.58-1.049.55 1.152-1.14-42.384 34.25-5.813 4.725-2.471 14.208 5.051 14.208 1.773 0 3.558-.587 5.041-1.792l36.011-29.273 58.669 47.69h-241.668c-4.418 0-8 3.582-8 8v398c0 4.418 3.582 8 8 8h366c4.418 0 8-3.582 8-8v-398c0-4.419-3.581-8-8-8z"/>
        <path
            d="m145.408 441.997h241.59c4.418 0 8-3.582 8-8v-322c0-4.418-3.582-8-8-8h-294c-4.418 0-8 3.582-8 8v322c0 4.418 3.582 8 8 8s8-3.582 8-8v-314h278v306h-225.59v-16.693c0-10.771 6.841-20.366 17.023-23.877l23.9-8.241c8.688 19.217 25.22 31.271 44.287 34.609.914.16 1.844.16 2.759 0 7.91-1.385 15.289-4.237 21.93-8.477 3.724-2.378 4.815-7.324 2.438-11.048s-7.324-4.814-11.048-2.438c-4.465 2.851-9.404 4.846-14.7 5.939-14.205-2.931-25.571-12.298-31.45-25.974 2.405-2.714 2.732-6.813.553-9.906-2.546-3.612-7.536-4.477-11.147-1.931-3.894 2.744-4.105 2.445-32.793 12.358-16.606 5.739-27.752 21.409-27.752 38.983v24.693c0 4.421 3.581 8.003 8 8.003z"/>
        <path
            d="m119.979 356.908c-.646 4.371 2.375 8.438 6.746 9.083 4.371.646 8.437-2.375 9.083-6.746 1.043-7.066 5.863-13.009 12.579-15.509 5.642-2.1 7.035-9.479 2.515-13.484-3.091-2.74-4.864-6.674-4.864-10.792 0-8.765 7.813-15.583 16.603-14.255 4.838.728 9.195-3.016 9.195-7.91v-6.857c5.435 40.067 44.737 67.519 84.889 57.452 3.468 13.063 13.224 23.877 26.424 28.429l26.432 9.113c4.876 1.685 9.067 4.773 12.118 8.934 1.818 2.479 4.97 3.813 8.286 3.032 17.393-2.559 30.417-17.573 30.417-35.249 0-11.25-5.378-21.698-14.046-28.338 9.88-18.455-1.507-41.254-22.193-44.419v-71.524c0-37.975-30.895-68.87-68.87-68.87h-30.588c-37.975 0-68.87 30.895-68.87 68.87v71.524c-20.607 3.153-32.108 25.873-22.203 44.403-7.29 5.55-12.277 13.792-13.653 23.113zm197.378-51.704c14.318-2.163 22.358 15.635 11.738 25.048-4.506 3.994-3.144 11.378 2.515 13.484 7.65 2.848 12.791 10.247 12.791 18.412 0 8.54-5.514 15.944-13.324 18.593-4.512-4.709-10.053-8.288-16.297-10.441l-.012.035c.034-.1 1.267.398-26.405-9.144-8.634-2.977-14.847-10.334-16.543-19.066 19.345-10.136 33.292-29.199 36.342-51.688v6.857c0 4.886 4.351 8.64 9.195 7.91zm-92.653-140.207h30.588c29.152 0 52.87 23.717 52.87 52.87v29.41c-.921-2.194-2.776-3.933-5.17-4.613-10.31-2.928-24.632-20.011-25.541-30.465-.383-4.402-4.264-7.662-8.663-7.277-4.402.383-7.66 4.261-7.277 8.663 1.3 14.953 16.37 34.561 31.295 42.148v25.415c0 29.119-23.689 52.808-52.808 52.808s-52.808-23.689-52.808-52.808v-28.189c19.326.953 38.825-2.776 52.567-6.368 4.274-1.117 6.834-5.488 5.716-9.763-1.117-4.274-5.488-6.833-9.763-5.716-14.51 3.793-35.915 7.771-55.468 5.175-3.462-.458-6.955 1.386-8.408 4.804v-23.224c.001-29.153 23.718-52.87 52.87-52.87z"/>
    </g>
</svg>
