<svg id="logo-mobile" data-name="Calque 1" xmlns="http://www.w3.org/2000/svg" viewBox="0 0 589.5 579.33"><g id="bdaa5c09-ea43-4013-84fb-81290af99666" data-name="Lettres"><path d="M40.59,140.11q28.54,173,84.27,297,27.18-30.88,85-125Q251.27,393,290,432.19q54.36-123,76.8-291.1,17.65-2,41.45,0-41.46,199-110.1,352.85a1142.33,1142.33,0,0,1-91.75-139.18q-17,57.83-84.27,143.1Q45.33,336.13,3.89,139.13q9.51-1.47,16.31-2a2.32,2.32,0,0,1,1.36.49Q28.34,137.66,40.59,140.11Z" transform="translate(-3.89 -8.97)" style="fill:#fff"/><path d="M443.87,224.18a55,55,0,0,1,12.91-1.47,68.31,68.31,0,0,1,23.11,4.41q38.05,119.08,113.5,357.75-17,4.89-40.78,1a1672,1672,0,0,0-91.75-312.66q-17.69,62.24-34,116.15-17,53.42-34.67,112.71-12.91,36.75-36,63.22-19,23-54.37,23c-3.63,0-7.47-.17-11.55-.49q-62.53-6.85-62.53-51.45a75.44,75.44,0,0,1,1.36-13.73q8.82-26.46,31.94-31.36,18.36-6.86,25.15,11.27A55.63,55.63,0,0,0,268.52,506a48.32,48.32,0,0,0-12.91,7.35q-11.56,10.78-9.52,26,1.35,15.19,15.63,24a60.8,60.8,0,0,0,12.24,4.9,59.94,59.94,0,0,0,15,2.45q37.36.5,57.77-34.3,21.06-35.29,42.14-108.31,10.86-39.69,23.78-90.66Q426.19,286.92,443.87,224.18ZM418.72,390.81q23.1-1,92.43-4.41,1.35,4.89,6.8,20.58H409.88Q411.92,403.07,418.72,390.81Z" transform="translate(-3.89 -8.97)" style="fill:#fff"/></g><g id="b5f87baa-1b2c-44a3-9797-58e928a285dd" data-name="Clé"><path id="b6a0efd4-3e76-4e52-9d4c-2418bbb8a966" data-name="Clés" d="M553.83,49c-3.57,4.94-7.14,9.88-11.5,15.93,1.77-9.48,3.24-17.36,4.72-25.24l-3.87-.38-6.83,12.62-3.42-.37c-1.14-7.78-.47-16-3.93-23.2S518,15.24,512.4,9V58.3l-2.18.15-2.83-3.83C496.82,77.8,486.56,102,474.72,125.76c-9.53,19.16-9.23,37.34,4.28,55.33,1.28,1.71,1.18,4,1.72,5.95l-2.6,1.68c-7.62-4-14.93-8.31-22.92-11.84-21.36-9.44-43-18.59-64.58-27.74-13.61-5.77-25.44-2.85-38,3-11,5.07-23.44,8.64-35.74,11.91s-22.79,0-32.8-6c-10.88-6.55-23.14-11.9-35.28-18-4.54,13.78-21,2.56-27.46,8.86,9.58,1.62,19.33,3,28.85,5,3.07.64,5.5,2.87,8.22,4.37-8.65,7.56,6.36,10.15,6.4,14.28l-26.58,11.21.87,2.1,47.45-6.68.57,1.18-51.25,14.45,1.53,3.16,26.43-3.62.36.92-14,4.87a14.55,14.55,0,0,0,8.61,1.12c17.43-3.31,33.66-10.53,53.22-6.08,12.06,2.75,27.46,1,36.84,5.88,11.61,6,20.9,4.12,31.47,2,5.13-1,9.7-3.51,16.59-6.11l-8.2,9,1.87,2.12,55.83-11.89c-23.44,13.07-2.18,24.71-4,36.63,4.1.37,7.48.06,10,1,9.88,3.71,19.11,4.9,27.75-1.65s5-13.26,1.3-20.41c-1.34-2.61-.32-7,2.08-9.24,11.38-10.54,23.6-20.6,35.53-30.83l4.21,3.71,31.32,15.08c-1.26-5.69-1.95-8.77-2.86-12.88l12.77,2.73,2.44-1.81-21.53-20.59c6.41-5,8.12-10.32-1.22-15-9.88-4.95-14.25.89-19,5.45-10.41,10-20.69,20.12-31,30.18,4.31-21.65,26.27-36,40.27-53.94l-16.69,1.84c25.35-3.88,31.55-19.51,43.43-35.4l-17.39,9.11C562.12,84.61,558.61,67,553.83,49Z" transform="translate(-3.89 -8.97)" style="fill:#fff"/><ellipse cx="456.79" cy="207.57" rx="28.09" ry="27.78"/></g></svg>
