<svg id="icon-1" version="1.1" xmlns="http://www.w3.org/2000/svg" xmlns:xlink="http://www.w3.org/1999/xlink" x="0px" y="0px" 	 viewBox="0 0 512 512" style="enable-background:new 0 0 512 512;" xml:space="preserve">     <g> 		<path d="M496.803,337.566L174.42,15.181C160.565,1.326,139.065-3.208,114.554,2.301c-4.564,1.025-7.312,5.697-5.929,10.166 			c1.221,3.946,5.262,6.36,9.289,5.446c19.093-4.333,35.32-1.333,45.213,8.56l4.489,4.488c-17.731-0.621-38.126,5.015-58.494,16.881 			c-3.585,2.088-5.225,6.562-3.502,10.335c1.372,3.002,4.284,4.694,7.284,4.694c1.37,0,2.759-0.352,4.026-1.094 			c27.735-16.23,54.682-19.411,71.279-9.016c-17.436-0.318-37.356,5.34-57.247,16.929c-3.583,2.088-5.22,6.561-3.496,10.332 			c1.372,3.002,4.284,4.694,7.283,4.694c1.37,0,2.759-0.352,4.026-1.094c27.735-16.23,54.682-19.411,71.279-9.016 			c-17.436-0.318-37.356,5.34-57.247,16.929c-3.583,2.088-5.22,6.561-3.496,10.332c1.372,3.002,4.284,4.694,7.283,4.694 			c1.37,0,2.759-0.352,4.026-1.094c27.735-16.23,54.682-19.411,71.28-9.016c-17.436-0.318-37.356,5.34-57.248,16.929 			c-3.583,2.088-5.22,6.561-3.497,10.332c1.372,3.002,4.284,4.694,7.284,4.694c1.37,0,2.759-0.352,4.026-1.094 			c27.965-16.365,55.13-19.464,71.691-8.756c-7.056-0.12-14.575,0.746-22.441,2.628c-23.957,5.733-48.599,20.339-69.385,41.123 			c-20.786,20.786-35.391,45.427-41.124,69.385c-1.979,8.273-2.831,16.159-2.597,23.528l-92.115-92.115 			c-10.09-10.09-13.044-26.519-8.32-46.263c5.055-21.132,18.152-43.08,36.875-61.805c9.433-9.433,19.977-17.636,30.826-24.016 			c3.657-2.151,5.021-6.761,3.083-10.535l-0.006-0.013c-2.087-4.066-7.166-5.573-11.11-3.264 			c-12.087,7.077-23.524,15.978-34.083,26.537c-20.78,20.78-35.382,45.421-41.115,69.382c-6.064,25.348-1.603,47.109,12.56,61.271 			L144.572,303.77v125.789c0,2.662,1.18,5.256,3.355,6.79c1.411,0.995,3.027,1.477,4.628,1.477c1.874,0,3.727-0.659,5.205-1.928 			l18.966-16.293l18.804,16.146c1.9,1.632,4.443,2.425,6.899,1.932c3.847-0.772,6.459-4.102,6.459-7.842v-61.754l128.666,128.666 			c0.01,0.009,0.018,0.018,0.027,0.028c10.036,10.036,23.884,15.199,40.121,15.199c6.678,0,13.762-0.874,21.149-2.641 			c23.958-5.733,48.599-20.337,69.384-41.122c20.785-20.785,35.389-45.425,41.122-69.384 			C515.424,373.488,510.964,351.729,496.803,337.566z M335.732,199.078l39.151,39.151c-16.235-0.569-34.701,4.108-53.338,14.012 			l-53.664-53.664c27.849-13.519,53.799-13.55,67.837,0.489C335.723,199.071,335.728,199.074,335.732,199.078z M192.919,412.462 			l-10.992-9.438c-2.993-2.57-7.413-2.569-10.405,0.001l-10.98,9.432v-92.715l0.647,0.647c0.001,0.001,0.002,0.001,0.003,0.002 			l31.726,31.727V412.462z M325.026,435.511c-1.98,8.274-2.831,16.161-2.597,23.529L172.477,309.09 			c-11.625-11.631-13.667-31.773-5.838-54.797c1.363-4.006-0.55-8.386-4.456-10.015c-4.236-1.767-9.13,0.38-10.61,4.724 			c-4.039,11.856-5.859,23.252-5.501,33.684l-1.021-1.02c-10.087-10.09-13.039-26.517-8.316-46.255 			c5.057-21.13,18.156-43.08,36.886-61.81c18.729-18.729,40.68-31.828,61.81-36.885c19.741-4.725,36.17-1.771,46.259,8.319 			l0.973,0.973c-7.37-0.235-15.255,0.626-23.523,2.605c-23.955,5.734-48.597,20.337-69.385,41.12 			c-7.625,7.625-14.437,15.784-20.322,24.331c-2.59,3.763-1.483,8.934,2.409,11.325l0.003,0.002 			c3.622,2.225,8.341,1.216,10.751-2.285c5.331-7.742,11.516-15.145,18.45-22.079c18.731-18.727,40.682-31.824,61.811-36.883 			c19.742-4.725,36.17-1.772,46.258,8.316c0.001,0.001,0.002,0.001,0.003,0.002l0.231,0.231 			c-17.759-0.622-38.189,5.033-58.589,16.937c-1.328,0.775-2.474,1.871-3.184,3.233c-1.684,3.229-1.001,6.991,1.41,9.4 			l65.535,65.535c1.538,1.538,3.583,2.339,5.649,2.339c1.382,0,2.773-0.358,4.031-1.093c27.735-16.23,54.683-19.411,71.28-9.016 			c-17.511-0.319-37.527,5.389-57.502,17.077c-3.806,2.227-5.086,7.118-2.859,10.925c1.486,2.538,4.155,3.953,6.899,3.953 			c1.37,0,2.759-0.352,4.026-1.095c27.735-16.23,54.682-19.41,71.28-9.016c-17.511-0.319-37.526,5.389-57.501,17.077 			c-3.806,2.227-5.086,7.118-2.859,10.925c1.486,2.538,4.155,3.953,6.899,3.953c1.37,0,2.759-0.352,4.026-1.094 			c31.232-18.277,61.479-20.021,77.056-4.445c0.003,0.003,0.007,0.006,0.012,0.011l14.105,14.106 			c-7.37-0.234-15.258,0.616-23.531,2.597c-23.958,5.733-48.6,20.337-69.384,41.122 			C345.363,386.911,330.759,411.552,325.026,435.511z M348.877,485.492l-0.015-0.016c-10.079-10.091-13.03-26.514-8.307-46.247 			c4.544-18.99,15.601-38.635,31.385-56.015l21.037,21.037c-25.349,28.932-31.262,64.053-12.943,82.372 			c3.478,3.478,7.567,6.074,12.098,7.838C373.732,498.197,358.448,495.06,348.877,485.492z M493.827,395.116 			c-5.057,21.131-18.155,43.081-36.884,61.809c-22.772,22.772-52.821,31.2-65.618,18.405c-12.796-12.796-4.367-42.846,18.405-65.618 			c3.118-3.118,3.118-8.175,0-11.292l-26.499-26.499c17.381-15.784,37.025-26.839,56.015-31.385 			c6.142-1.469,11.961-2.196,17.37-2.196c11.979,0,21.94,3.565,28.89,10.515C495.597,358.945,498.551,375.374,493.827,395.116z"/> 		<path d="M95.484,66.533c-2.875-3.341-7.916-3.722-11.26-0.846c-3.219,2.767-6.449,5.769-9.602,8.922 			c-23.321,23.321-38.916,51.746-42.787,77.989c-0.643,4.363,2.372,8.422,6.735,9.065c0.395,0.059,0.787,0.086,1.175,0.086 			c3.895,0,7.305-2.853,7.89-6.821c3.38-22.92,17.333-48.08,38.279-69.026c2.871-2.871,5.806-5.598,8.722-8.106 			C97.98,74.92,98.359,69.877,95.484,66.533z"/> 		<path d="M117.33,88.378c-2.875-3.342-7.917-3.721-11.261-0.846c-3.219,2.767-6.449,5.769-9.602,8.922 			c-23.321,23.32-38.915,51.746-42.786,77.989c-0.643,4.363,2.372,8.422,6.735,9.065c0.395,0.059,0.787,0.086,1.175,0.086 			c3.895,0,7.305-2.853,7.89-6.821c3.38-22.92,17.333-48.08,38.279-69.026c2.871-2.871,5.806-5.598,8.722-8.107 			C119.826,96.765,120.205,91.722,117.33,88.378z"/> 		<path d="M139.175,110.223c-2.876-3.341-7.917-3.722-11.261-0.846c-3.22,2.769-6.451,5.771-9.602,8.923 			c-23.321,23.32-38.915,51.745-42.786,77.988c-0.643,4.363,2.372,8.422,6.735,9.065c0.395,0.059,0.787,0.086,1.175,0.086 			c3.895,0,7.305-2.853,7.89-6.821c3.38-22.92,17.333-48.08,38.279-69.026c2.869-2.87,5.804-5.597,8.722-8.106 			C141.671,118.61,142.05,113.567,139.175,110.223z"/> 		<path d="M161.02,132.069c-2.875-3.343-7.917-3.723-11.261-0.848c-3.216,2.765-6.447,5.767-9.602,8.923 			c-23.321,23.32-38.915,51.745-42.786,77.988c-0.643,4.363,2.372,8.422,6.735,9.066c0.395,0.059,0.787,0.086,1.175,0.086 			c3.895,0,7.305-2.853,7.89-6.821c3.38-22.92,17.333-48.08,38.279-69.026c2.874-2.874,5.808-5.601,8.722-8.106 			C163.516,140.456,163.896,135.413,161.02,132.069z"/> 		<path d="M302.754,273.804c-2.876-3.344-7.916-3.723-11.261-0.847c-3.216,2.766-6.448,5.767-9.602,8.923 			c-23.321,23.321-38.916,51.747-42.787,77.989c-0.643,4.363,2.372,8.422,6.735,9.065c0.395,0.059,0.787,0.086,1.175,0.086 			c3.895,0,7.305-2.853,7.89-6.821c3.38-22.92,17.333-48.08,38.279-69.026c2.874-2.872,5.808-5.6,8.723-8.107 			C305.251,282.19,305.63,277.149,302.754,273.804z"/> 		<path d="M324.599,295.649c-2.877-3.345-7.917-3.723-11.261-0.847c-3.216,2.766-6.448,5.767-9.602,8.923 			c-23.321,23.321-38.916,51.747-42.787,77.989c-0.643,4.363,2.372,8.422,6.735,9.065c0.395,0.059,0.787,0.086,1.175,0.086 			c3.895,0,7.305-2.853,7.89-6.821c3.38-22.92,17.333-48.08,38.279-69.026c2.874-2.872,5.808-5.6,8.723-8.107 			C327.096,304.035,327.475,298.994,324.599,295.649z"/> 		<path d="M346.444,317.493c-2.875-3.344-7.917-3.724-11.261-0.846c-3.22,2.769-6.45,5.771-9.601,8.922 			c-23.321,23.321-38.916,51.746-42.787,77.989c-0.643,4.363,2.372,8.422,6.735,9.065c0.395,0.059,0.787,0.086,1.175,0.086 			c3.895,0,7.305-2.853,7.89-6.821c3.38-22.92,17.333-48.08,38.279-69.026c2.87-2.869,5.805-5.596,8.723-8.106 			C348.941,325.879,349.321,320.838,346.444,317.493z"/> 		<path d="M237.219,208.268c-2.876-3.345-7.917-3.724-11.261-0.847c-3.215,2.765-6.446,5.767-9.602,8.923 			c-23.321,23.32-38.915,51.746-42.786,77.989c-0.643,4.363,2.372,8.422,6.735,9.065c0.395,0.059,0.787,0.086,1.175,0.086 			c3.895,0,7.305-2.853,7.89-6.821c3.38-22.92,17.333-48.08,38.278-69.026c2.875-2.874,5.809-5.601,8.723-8.106 			C239.715,216.654,240.094,211.612,237.219,208.268z"/> 		<path d="M259.064,230.113c-2.876-3.344-7.916-3.723-11.261-0.847c-3.216,2.766-6.448,5.767-9.602,8.923 			c-23.321,23.321-38.916,51.747-42.787,77.989c-0.643,4.363,2.372,8.422,6.735,9.065c0.395,0.059,0.787,0.086,1.175,0.086 			c3.895,0,7.305-2.853,7.89-6.821c3.38-22.92,17.333-48.08,38.279-69.026c2.874-2.872,5.808-5.6,8.723-8.106 			C261.56,238.499,261.939,233.457,259.064,230.113z"/> 		<path d="M280.909,251.959c-2.876-3.345-7.917-3.723-11.261-0.848c-3.216,2.766-6.448,5.767-9.602,8.923 			c-23.321,23.321-38.916,51.746-42.787,77.989c-0.643,4.363,2.372,8.422,6.735,9.065c0.395,0.059,0.787,0.086,1.175,0.086 			c3.895,0,7.305-2.853,7.89-6.821c3.38-22.92,17.333-48.08,38.279-69.026c2.874-2.872,5.808-5.6,8.723-8.106 			C283.406,260.345,283.785,255.304,280.909,251.959z"/> 	</g> </svg>
