<svg id="icon-1" version="1.1" xmlns="http://www.w3.org/2000/svg" xmlns:xlink="http://www.w3.org/1999/xlink" x="0px" y="0px"
                    viewBox="0 0 511.999 511.999" style="enable-background:new 0 0 511.999 511.999;" xml:space="preserve">
                                <g>
                                        <path d="M181.691,136.838c-4.216,0-7.634,3.418-7.634,7.634v20.231c0,4.216,3.418,7.634,7.634,7.634
                                            c4.216,0,7.634-3.418,7.634-7.634v-20.231C189.325,140.256,185.907,136.838,181.691,136.838z"/>
                                        <path d="M181.691,191.305c-4.216,0-7.634,3.418-7.634,7.634v20.231c0,4.216,3.418,7.634,7.634,7.634
                                            c4.216,0,7.634-3.418,7.634-7.634v-20.231C189.325,194.723,185.907,191.305,181.691,191.305z"/>
                                        <path d="M219.04,174.187h-20.231c-4.216,0-7.634,3.418-7.634,7.634c0,4.216,3.418,7.634,7.634,7.634h20.231
                                            c4.216,0,7.634-3.418,7.634-7.634C226.674,177.605,223.256,174.187,219.04,174.187z"/>
                                        <path d="M164.573,174.187h-20.231c-4.216,0-7.634,3.418-7.634,7.634c0,4.216,3.418,7.634,7.634,7.634h20.231
                                            c4.216,0,7.634-3.418,7.634-7.634C172.207,177.605,168.789,174.187,164.573,174.187z"/>
                                        <path d="M327.822,67.176l-18.904-3.832c-15.657-3.174-27.826-15.343-31-31l-3.832-18.904c-1.529-7.543-7.972-12.81-15.67-12.81
                                            c-7.696,0-14.14,5.268-15.669,12.81l-3.833,18.904c-3.175,15.657-15.342,27.826-30.999,31l-18.904,3.832
                                            c-7.543,1.53-12.81,7.973-12.81,15.669c0,7.696,5.268,14.14,12.81,15.67l18.904,3.832c15.658,3.175,27.825,15.343,30.999,31
                                            l3.833,18.904c1.529,7.543,7.972,12.81,15.669,12.81c7.697,0,14.141-5.268,15.67-12.81l3.832-18.904
                                            c3.175-15.657,15.343-27.826,31-31l18.904-3.832c7.543-1.53,12.811-7.973,12.811-15.67S335.365,68.706,327.822,67.176z
                                            M324.788,83.549l-18.904,3.832c-21.683,4.396-38.534,21.248-42.931,42.93l-3.832,18.904c-0.07,0.347-0.116,0.576-0.704,0.576
                                            c-0.587,0-0.634-0.229-0.704-0.576l-3.832-18.904c-4.396-21.683-21.248-38.534-42.93-42.93l-18.904-3.832
                                            c-0.347-0.07-0.576-0.117-0.576-0.704c0-0.587,0.229-0.634,0.576-0.704l18.904-3.832c21.682-4.396,38.534-21.248,42.93-42.93
                                            l3.832-18.904c0.07-0.347,0.117-0.576,0.704-0.576c0.588,0,0.634,0.229,0.704,0.576l3.832,18.904
                                            c4.396,21.684,21.248,38.534,42.931,42.93l18.904,3.832c0.347,0.07,0.576,0.117,0.576,0.704
                                            C325.364,83.433,325.134,83.48,324.788,83.549z"/>
                                        <path d="M498.437,300.609l-21.027-4.263c-17.753-3.599-31.551-17.397-35.15-35.151l-4.263-21.027
                                            c-1.62-7.986-8.44-13.563-16.589-13.563s-14.969,5.577-16.589,13.563l-4.263,21.027c-3.599,17.754-17.397,31.552-35.151,35.151
                                            l-21.026,4.263c-7.985,1.618-13.563,8.44-13.563,16.588s5.577,14.969,13.563,16.588l21.026,4.263
                                            c17.754,3.599,31.552,17.397,35.151,35.151l4.263,21.027c1.62,7.985,8.44,13.563,16.589,13.563s14.969-5.577,16.589-13.563
                                            l4.263-21.027c3.599-17.754,17.397-31.552,35.15-35.151l21.027-4.263c7.985-1.618,13.563-8.44,13.563-16.588
                                            S506.422,302.227,498.437,300.609z M495.403,318.82l-21.027,4.263c-23.779,4.821-42.26,23.302-47.081,47.081l-4.263,21.027
                                            c-0.08,0.397-0.27,1.328-1.625,1.328c-1.355,0-1.544-0.931-1.625-1.328l-4.263-21.027c-4.821-23.779-23.302-42.261-47.082-47.081
                                            l-21.026-4.263c-0.398-0.08-1.328-0.27-1.328-1.624s0.93-1.543,1.328-1.624l21.026-4.263c23.78-4.821,42.262-23.302,47.082-47.081
                                            l4.263-21.027c0.08-0.397,0.27-1.328,1.625-1.328c1.355,0,1.544,0.931,1.625,1.328l4.263,21.027
                                            c4.821,23.78,23.302,42.261,47.081,47.081l21.027,4.263c0.398,0.08,1.328,0.269,1.328,1.624S495.8,318.74,495.403,318.82z"/>
                                        <path d="M503.779,10.437c-7.739-7.738-20.025-7.906-27.971-0.378l-260.89,247.173l-7.021-7.021
                                            c-1.823-1.823-4.441-2.603-6.965-2.073c-2.522,0.529-4.608,2.294-5.546,4.696c-0.131,0.337-13.3,33.776-29.896,50.451
                                            l-13.184,12.259l-3.431-3.431c-1.535-1.535-3.654-2.341-5.817-2.225c-2.167,0.119-4.182,1.155-5.538,2.849
                                            c-39.745,49.608-85.05,94.914-134.659,134.658c-1.694,1.357-2.73,3.371-2.849,5.538s0.69,4.283,2.225,5.817l50.384,50.384
                                            c1.435,1.436,3.378,2.236,5.398,2.236c0.139,0,0.28-0.004,0.42-0.011c2.167-0.119,4.182-1.155,5.538-2.849
                                            c39.744-49.609,85.05-94.915,134.658-134.658c1.694-1.357,2.73-3.371,2.849-5.538c0.119-2.167-0.69-4.283-2.225-5.817
                                            l-0.553-0.553l73.285-78.817c16.575-17.826,67.131-48.76,67.64-49.07c1.996-1.22,3.326-3.289,3.602-5.614
                                            s-0.527-4.648-2.182-6.303l-6.332-6.332L504.1,38.466C511.564,30.651,511.419,18.077,503.779,10.437z M76.55,469.74L56.931,450.12
                                            c-2.981-2.981-7.815-2.981-10.796,0c-2.981,2.981-2.981,7.815,0,10.796l20.434,20.433c-3.076,3.642-6.134,7.298-9.149,10.989
                                            l-38.388-38.388c39.094-31.948,75.473-67.315,108.556-105.479l21.975,21.975c1.49,1.49,3.445,2.236,5.398,2.236
                                            s3.908-0.745,5.398-2.236c2.981-2.981,2.981-7.816,0-10.796l-22.832-22.832c2.198-2.626,4.384-5.263,6.551-7.914l38.388,38.388
                                            C144.408,398.393,108.925,432.735,76.55,469.74z M493.058,27.92L323.921,205.007l-3.914-3.914c-2.98-2.982-7.814-2.981-10.796,0
                                            s-2.981,7.815,0.001,10.796l9.427,9.427c0.003,0.003,0.006,0.007,0.009,0.01l4.818,4.818
                                            c-15.552,9.856-48.797,31.679-62.656,46.585l-72.908,78.41l-24.792-24.792l12.881-11.977c0.068-0.063,0.134-0.127,0.2-0.192
                                            c12.712-12.712,23.19-32.916,28.859-45.221l4.326,4.326l9.043,9.043c1.49,1.49,3.445,2.236,5.398,2.236s3.908-0.745,5.398-2.236
                                            c2.981-2.981,2.981-7.816,0-10.796l-3.498-3.498L486.308,21.143c1.895-1.796,4.825-1.756,6.673,0.091
                                            C494.805,23.057,494.838,26.056,493.058,27.92z"/>
                                    </g>
</svg>
