<svg id="icon-1" enable-background="new 0 0 512 512" viewBox="0 0 512 512"
     xmlns="http://www.w3.org/2000/svg">
    <g>
        <path
            d="m256 196c-41.367 0-75 33.647-75 75s33.633 75 75 75 75-33.647 75-75-33.633-75-75-75zm0 120c-24.814 0-45-20.186-45-45s20.186-45 45-45 45 20.186 45 45-20.186 45-45 45z"></path>
        <path
            d="m467 106h-114.789l-25.605-25.605c-2.813-2.813-6.622-4.395-10.606-4.395h-120c-3.984 0-7.793 1.582-10.605 4.395l-25.606 25.605h-69.789v-15c0-8.291-6.709-15-15-15s-15 6.709-15 15v15h-15c-24.814 0-45 20.186-45 45v240c0 24.814 20.186 45 45 45h422c24.814 0 45-20.186 45-45v-240c0-24.814-20.186-45-45-45zm-211 270c-57.891 0-105-47.109-105-105s47.109-105 105-105 105 47.109 105 105-47.109 105-105 105zm180-180h-30c-8.291 0-15-6.709-15-15s6.709-15 15-15h30c8.291 0 15 6.709 15 15s-6.709 15-15 15z"></path>
        <circle cx="256" cy="271" r="15"></circle>
    </g>
</svg>
